<?xml version="1.0" encoding="UTF-8"?>
<svg version="1.1" xmlns="http://www.w3.org/2000/svg" width="500" height="500">
<path d="M0 0 C1.49105003 -0.00422974 1.49105003 -0.00422974 3.01222229 -0.00854492 C4.0965152 -0.00652069 5.18080811 -0.00449646 6.29795837 -0.00241089 C7.44464493 -0.00416321 8.59133148 -0.00591553 9.77276611 -0.00772095 C13.56755583 -0.01212649 17.36229904 -0.00920619 21.15708923 -0.00582886 C23.78977467 -0.00650222 26.42246004 -0.00747252 29.05514526 -0.00872803 C34.57391363 -0.01054664 40.0926686 -0.00815122 45.61143494 -0.00338745 C51.99279987 0.00205727 58.37413287 0.00028975 64.75549704 -0.00521386 C70.89469518 -0.01029674 77.03387916 -0.00976126 83.17307854 -0.00683212 C85.78584739 -0.00616368 88.39861706 -0.0069884 91.01138496 -0.00931168 C94.65771287 -0.01184249 98.30397885 -0.00799158 101.95030212 -0.00241089 C103.57977783 -0.00544724 103.57977783 -0.00544724 105.24217224 -0.00854492 C106.23338577 -0.0057251 107.2245993 -0.00290527 108.24584961 0 C109.53916749 0.00056554 109.53916749 0.00056554 110.85861301 0.0011425 C113.05943298 0.12698364 113.05943298 0.12698364 116.05943298 1.12698364 C117.64212943 8.9562799 118.4816628 16.80277283 119.18443298 24.75198364 C119.2719281 25.71692749 119.35942322 26.68187134 119.4495697 27.67605591 C119.97183246 33.84180387 120.16589726 39.94022599 120.05943298 46.12698364 C118.07943298 46.12698364 116.09943298 46.12698364 114.05943298 46.12698364 C113.81708923 45.23237427 113.57474548 44.33776489 113.32505798 43.41604614 C110.43937804 33.00540081 107.58975167 23.83407523 101.05943298 15.12698364 C101.05943298 14.46698364 101.05943298 13.80698364 101.05943298 13.12698364 C100.39943298 13.12698364 99.73943298 13.12698364 99.05943298 13.12698364 C99.05943298 12.46698364 99.05943298 11.80698364 99.05943298 11.12698364 C87.39860955 5.08063075 82.40566511 6.80807665 66.05943298 6.12698364 C66.05943298 24.27698364 66.05943298 42.42698364 66.05943298 61.12698364 C58.13943298 61.12698364 50.21943298 61.12698364 42.05943298 61.12698364 C42.05943298 42.97698364 42.05943298 24.82698364 42.05943298 6.12698364 C21.38276829 4.98486053 21.38276829 4.98486053 6.88755798 14.45120239 C0.14747554 24.54464268 -2.67915472 34.23743718 -4.94056702 46.12698364 C-7.25056702 46.12698364 -9.56056702 46.12698364 -11.94056702 46.12698364 C-11.30229251 31.09393935 -10.21212141 16.11910967 -8.94056702 1.12698364 C-5.890222 0.23947738 -3.17219607 0.00138652 0 0 Z " fill="#121212" transform="translate(120.94056701660156,169.87301635742188)"/>
<path d="M0 0 C13.76885474 -0.04670222 27.53769722 -0.08184718 41.30661488 -0.10362434 C47.69963637 -0.11407471 54.09260477 -0.12825679 60.4855957 -0.15087891 C66.65176098 -0.17256257 72.81787509 -0.18455918 78.98407555 -0.18975449 C81.34007256 -0.1934583 83.69606669 -0.20069061 86.05204201 -0.21146011 C89.3444086 -0.22591544 92.63656201 -0.22798043 95.92895508 -0.22705078 C96.90934753 -0.23424133 97.88973999 -0.24143188 98.89984131 -0.24884033 C100.24387779 -0.24471634 100.24387779 -0.24471634 101.61506653 -0.24050903 C102.3939816 -0.24235262 103.17289667 -0.24419621 103.97541523 -0.24609566 C106 0 106 0 109 2 C110.44169535 6.00272341 110.14368493 10.21162401 110.1328125 14.4140625 C110.13376923 15.22491302 110.13472595 16.03576355 110.13571167 16.8711853 C110.13639083 18.58079099 110.13455498 20.29039929 110.13037109 22 C110.12500521 24.6224543 110.13033212 27.24473842 110.13671875 29.8671875 C110.13605819 31.52864621 110.1347775 33.19010482 110.1328125 34.8515625 C110.13483673 35.63802155 110.13686096 36.42448059 110.13894653 37.23477173 C110.11496965 42.7700607 110.11496965 42.7700607 109 45 C107.68 45 106.36 45 105 45 C104.81824219 44.05640625 104.81824219 44.05640625 104.6328125 43.09375 C104.10394825 40.39247413 103.55691621 37.69562914 103 35 C102.7834375 33.94619141 102.7834375 33.94619141 102.5625 32.87109375 C101.51753319 28.25271363 99.84373901 24.15440216 97.8046875 19.8828125 C97 18 97 18 97 16 C96.34 16 95.68 16 95 16 C94.566875 15.236875 94.13375 14.47375 93.6875 13.6875 C91.48528492 10.18026857 89.04993956 8.6073391 85.09197998 7.43470764 C83.00295117 7.00061325 81.09685508 6.84311034 78.96582031 6.79467773 C78.17449707 6.77449585 77.38317383 6.75431396 76.56787109 6.73352051 C75.74625488 6.71704468 74.92463867 6.70056885 74.078125 6.68359375 C72.9341626 6.65561707 72.9341626 6.65561707 71.76708984 6.6270752 C68.92817364 6.5589649 66.08907365 6.49869679 63.25 6.4375 C56.8975 6.293125 50.545 6.14875 44 6 C44 24.48 44 42.96 44 62 C36.08 62 28.16 62 20 62 C20 43.52 20 25.04 20 6 C13.73 6 7.46 6 1 6 C0 5 0 5 -0.0625 2.4375 C-0.041875 1.633125 -0.02125 0.82875 0 0 Z " fill="#101010" transform="translate(257,169)"/>
<path d="M0 0 C7.92 0 15.84 0 24 0 C24 16.5 24 33 24 50 C30.93 49.9175 37.86 49.835 45 49.75 C48.25810547 49.72631348 48.25810547 49.72631348 51.58203125 49.70214844 C53.32554728 49.67275268 55.06903996 49.64192227 56.8125 49.609375 C58.1437793 49.60768311 58.1437793 49.60768311 59.50195312 49.60595703 C66.5073608 49.44674322 71.54856344 47.60592925 77.13671875 43.38671875 C84.96198081 34.81243916 87.1046624 22.58226667 89.32421875 11.51171875 C90 9 90 9 92 7 C92.99 7 93.98 7 95 7 C96.70103668 10.40207336 96.16320272 14.2804458 96.16796875 18.0234375 C96.17296135 19.37001938 96.17296135 19.37001938 96.17805481 20.74380493 C96.18312296 22.6452788 96.18546317 24.54676157 96.18530273 26.44824219 C96.18748594 29.35626933 96.20563371 32.26391519 96.22460938 35.171875 C96.22754397 37.01822787 96.22952832 38.86458254 96.23046875 40.7109375 C96.23765427 41.5808432 96.24483978 42.4507489 96.25224304 43.34701538 C96.24916641 44.1611087 96.24608978 44.97520203 96.24291992 45.81396484 C96.24434494 46.52741058 96.24576996 47.24085632 96.24723816 47.97592163 C95.95537732 50.36531493 95.25940864 51.95638944 94 54 C91.61536221 55.1923189 90.16879168 55.12323131 87.50753784 55.12025452 C86.56240326 55.12162918 85.61726868 55.12300385 84.64349365 55.12442017 C83.60340149 55.12082489 82.56330933 55.11722961 81.49169922 55.11352539 C80.39900726 55.11367142 79.30631531 55.11381744 78.18051147 55.1139679 C74.55521688 55.11326914 70.92997316 55.10547842 67.3046875 55.09765625 C64.79647856 55.09579194 62.28826925 55.0943681 59.78005981 55.09336853 C53.84440201 55.08993561 47.90876063 55.08204764 41.97311127 55.07201904 C34.55369203 55.05975505 27.13427053 55.05437629 19.71484375 55.04882812 C6.47655316 55.0380926 -6.76172226 55.02120871 -20 55 C-20 53.35 -20 51.7 -20 50 C-13.4 50 -6.8 50 0 50 C0 33.5 0 17 0 0 Z " fill="#101010" transform="translate(277,269)"/>
<path d="M0 0 C7.92 0 15.84 0 24 0 C24 17.49 24 34.98 24 53 C30.27 53 36.54 53 43 53 C43.495 55.475 43.495 55.475 44 58 C43 59 43 59 40.48802185 59.12025452 C39.37105423 59.11803391 38.25408661 59.11581329 37.10327148 59.11352539 C35.84203964 59.11344986 34.5808078 59.11337433 33.28135681 59.11329651 C31.89460206 59.1081891 30.50784771 59.10297309 29.12109375 59.09765625 C27.71004791 59.09579201 26.29900143 59.09436814 24.88795471 59.09336853 C21.16759465 59.08954379 17.4472734 59.0797139 13.72692871 59.06866455 C9.93319219 59.05844948 6.13944942 59.05387071 2.34570312 59.04882812 C-5.10288231 59.03809158 -12.55143572 59.0210157 -20 59 C-20 57.02 -20 55.04 -20 53 C-13.4 53 -6.8 53 0 53 C0 35.51 0 18.02 0 0 Z " fill="#0F0F0F" transform="translate(163,269)"/>
<path d="M0 0 C0.7734375 -0.00773438 1.546875 -0.01546875 2.34375 -0.0234375 C5.00738272 0.4687555 5.86244913 1.25169245 7.5 3.375 C8.7227635 7.12480806 8.84196438 8.69107124 7.0625 12.25 C3.97575588 14.80973903 2.31786306 15.06637835 -1.59375 14.7890625 C-3.5 14.375 -3.5 14.375 -6 12.8125 C-8.06021138 9.46465651 -7.99125459 7.23485753 -7.5 3.375 C-5.30502081 0.39560819 -3.63065985 -0.0363066 0 0 Z M-1.5 4.375 C-1.83 6.025 -2.16 7.675 -2.5 9.375 C-0.60820797 10.0564823 -0.60820797 10.0564823 1.5 10.375 C2.16 9.715 2.82 9.055 3.5 8.375 C3.1814823 6.26679203 3.1814823 6.26679203 2.5 4.375 C1.18 4.375 -0.14 4.375 -1.5 4.375 Z " fill="#2F2F2F" transform="translate(221.5,241.625)"/>
<path d="M0 0 C1.588125 -0.061875 3.17625 -0.12375 4.8125 -0.1875 C6.15248047 -0.23970703 6.15248047 -0.23970703 7.51953125 -0.29296875 C10 0 10 0 11.84765625 1.26171875 C13.32158191 3.48509813 13.1428595 4.42047341 12.625 7 C12.04003527 10.02805274 11.97807312 10.93421937 13 14 C10.625 14.125 10.625 14.125 8 14 C7.34 13.34 6.68 12.68 6 12 C5.67 12.66 5.34 13.32 5 14 C3.35 13.67 1.7 13.34 0 13 C0 8.71 0 4.42 0 0 Z M5 4 C5 4.66 5 5.32 5 6 C5.99 6 6.98 6 8 6 C8 5.34 8 4.68 8 4 C7.01 4 6.02 4 5 4 Z " fill="#3A3A3A" transform="translate(236,242)"/>
<path d="M0 0 C3.96 0 7.92 0 12 0 C11.67 2.64 11.34 5.28 11 8 C9.02 8 7.04 8 5 8 C5 8.66 5 9.32 5 10 C7.31 10 9.62 10 12 10 C12 11.32 12 12.64 12 14 C8.04 14 4.08 14 0 14 C0 9.38 0 4.76 0 0 Z " fill="#373737" transform="translate(322,242)"/>
<path d="M0 0 C3.63 0 7.26 0 11 0 C11 2.64 11 5.28 11 8 C9.02 8 7.04 8 5 8 C5 8.66 5 9.32 5 10 C6.98 10 8.96 10 11 10 C11 11.32 11 12.64 11 14 C7.37 14 3.74 14 0 14 C0 9.38 0 4.76 0 0 Z " fill="#323232" transform="translate(267,242)"/>
<path d="M0 0 C1.65 0 3.3 0 5 0 C5.84026396 1.76755526 6.67198722 3.53917263 7.5 5.3125 C7.9640625 6.29863281 8.428125 7.28476563 8.90625 8.30078125 C10 11 10 11 10 14 C8.35 14 6.7 14 5 14 C5 13.01 5 12.02 5 11 C2.52733235 11.34444881 2.52733235 11.34444881 0 12 C-0.33 12.66 -0.66 13.32 -1 14 C-2.65 14 -4.3 14 -6 14 C-4.50829734 9.0276578 -2.39542583 4.58154261 0 0 Z M2 6 C3 8 3 8 3 8 Z " fill="#303030" transform="translate(289,242)"/>
<path d="M0 0 C2.97 0 5.94 0 9 0 C9 1.32 9 2.64 9 4 C7.35 3.67 5.7 3.34 4 3 C4 3.66 4 4.32 4 5 C4.804375 5.144375 5.60875 5.28875 6.4375 5.4375 C9 6 9 6 10 7 C10.1875 9.4375 10.1875 9.4375 10 12 C8 14 8 14 6.125 14.23046875 C5.42375 14.21628906 4.7225 14.20210938 4 14.1875 C3.29875 14.18105469 2.5975 14.17460937 1.875 14.16796875 C0 14 0 14 -2 13 C-1.67 11.68 -1.34 10.36 -1 9 C0.32 9 1.64 9 3 9 C2.360625 8.731875 1.72125 8.46375 1.0625 8.1875 C-1 7 -1 7 -2 4 C-1.34 2.68 -0.68 1.36 0 0 Z " fill="#444444" transform="translate(306,242)"/>
<path d="M0 0 C1.32 0 2.64 0 4 0 C4.33 3.3 4.66 6.6 5 10 C5.99 9.67 6.98 9.34 8 9 C8.33 6.03 8.66 3.06 9 0 C10.32 0 11.64 0 13 0 C13.05410687 1.77049689 13.09284119 3.54146849 13.125 5.3125 C13.14820313 6.29863281 13.17140625 7.28476563 13.1953125 8.30078125 C13 11 13 11 11 14 C3.99511923 14.6671315 3.99511923 14.6671315 1.2578125 12.83203125 C-0.50615589 10.26277294 -0.29627503 8.39445926 -0.1875 5.3125 C-0.16042969 4.31863281 -0.13335937 3.32476562 -0.10546875 2.30078125 C-0.07066406 1.54152344 -0.03585938 0.78226563 0 0 Z " fill="#353535" transform="translate(177,242)"/>
<path d="M0 0 C3.96 0 7.92 0 12 0 C11.67 1.32 11.34 2.64 11 4 C10.01 4 9.02 4 8 4 C8 7.3 8 10.6 8 14 C6.68 14 5.36 14 4 14 C4 10.7 4 7.4 4 4 C2.68 4 1.36 4 0 4 C0 2.68 0 1.36 0 0 Z " fill="#2F2F2F" transform="translate(159,242)"/>
<path d="M0 0 C1.32 0.33 2.64 0.66 4 1 C4 5.62 4 10.24 4 15 C1.69 15 -0.62 15 -3 15 C-2.44854729 9.76119922 -1.57077907 5.02649303 0 0 Z " fill="#383838" transform="translate(335,216)"/>
<path d="M0 0 C3.96 0 7.92 0 12 0 C12 1.32 12 2.64 12 4 C10.68 4 9.36 4 8 4 C8 7.3 8 10.6 8 14 C7.01 14 6.02 14 5 14 C5 10.7 5 7.4 5 4 C3.35 3.67 1.7 3.34 0 3 C0 2.01 0 1.02 0 0 Z " fill="#2D2D2D" transform="translate(196,242)"/>
<path d="M0 0 C5.56 0.48347826 5.56 0.48347826 7.4375 2.6875 C8.19404672 5.79774763 7.8502761 7.92592488 7 11 C5.5625 12.875 5.5625 12.875 4 14 C3.34 14 2.68 14 2 14 C0.375 12 0.375 12 -1 10 C-0.01 9.34 0.98 8.68 2 8 C2 7.01 2 6.02 2 5 C0.68 4.34 -0.64 3.68 -2 3 C-1.01 2.67 -0.02 2.34 1 2 C0.67 1.34 0.34 0.68 0 0 Z " fill="#444444" transform="translate(222,242)"/>
<path d="M0 0 C2.97 0 5.94 0 9 0 C9 1.32 9 2.64 9 4 C7.35 3.67 5.7 3.34 4 3 C4.33 4.32 4.66 5.64 5 7 C3.35 7.33 1.7 7.66 0 8 C-1.125 6.25 -1.125 6.25 -2 4 C-1.34 2.68 -0.68 1.36 0 0 Z " fill="#232323" transform="translate(306,242)"/>
<path d="M0 0 C2.97 0 5.94 0 9 0 C9 1.32 9 2.64 9 4 C7.35 3.67 5.7 3.34 4 3 C4 2.34 4 1.68 4 1 C2.68 0.67 1.36 0.34 0 0 Z " fill="#424242" transform="translate(306,242)"/>
</svg>
